<?xml version="1.0" standalone="no"?><!DOCTYPE svg PUBLIC "-//W3C//DTD SVG 1.1//EN" "http://www.w3.org/Graphics/SVG/1.1/DTD/svg11.dtd"><svg t="1534900291013" class="icon" style="" viewBox="0 0 1024 1024" version="1.1" xmlns="http://www.w3.org/2000/svg" p-id="4336" xmlns:xlink="http://www.w3.org/1999/xlink" width="200" height="200"><defs><style type="text/css"></style></defs><path d="M527.541975 34.486442c-254.082836 0-460.799898 206.717062-460.799898 460.799898 0 89.782839 26.066679 177.00025 75.382874 252.233722 10.349719 15.783475 31.516808 20.216437 47.266513 9.832949 3.070942-2.012843 5.703909-4.440126 7.887644-7.153934l61.672618-51.857065c10.310833 18.068518 25.675776 32.688493 38.327934 44.719504l9.133008 8.800433c10.633175 10.649548 30.750351 23.317055 66.333778 23.317055 62.383816-0.016373 169.149445-40.116673 281.733593-152.683425C786.080286 490.87896 844.146772 334.74597 783.89655 274.445606l-8.866948-9.18315c-20.016893-21.050432-47.433312-49.866734-86.133729-49.866734-28.41619 0-55.582923 15.883759-80.766488 47.216371-66.883293 83.266425-38.117133 124.133182 0.199545 161.933089-3.416819 9.016351-16.633842 33.582863-67.416436 84.333734-50.999534 50.966789-75.56707 64.0999-84.382852 67.466578-17.7165-17.983583-39.766702-40.249703-74.332962-40.249703-26.149567 0-53.166897 12.350283-87.6165 40.066531-9.667174 7.770987-17.814738 15.621792-24.479531 23.599488l-90.793866 76.342736c-29.071106-55.753815-44.297902-117.53388-44.297902-180.817182 0-216.449727 176.083367-392.533095 392.533095-392.533095s392.533095 176.083367 392.533095 392.533095S743.991702 887.819434 527.541975 887.819434c-66.86692 0-133.100414-17.316387-191.533244-50.083675-16.433274-9.233292-37.232996-3.350304-46.466288 13.066597-9.233292 16.449647-3.366677 37.250392 13.066597 46.466288 68.616774 38.483476 146.400325 58.81657 224.932935 58.81657 254.082836 0 460.799898-206.717062 460.799898-460.799898S781.62481 34.486442 527.541975 34.486442zM382.195655 604.361571c5.683443 0 13.566994 7.566326 25.867134 20.049638l5.633301 5.683443c10.283204 10.250458 23.717168 15.666818 38.883589 15.666818 22.316262 0 58.033741-10.083659 136.600121-88.599897 78.550007-78.516238 88.61627-114.233718 88.599897-136.566352 0-15.20019-5.466502-28.6669-15.733333-38.916335l-5.66707-5.616928c-25.616424-25.266453-28.916587-28.516474 4.983501-70.700225 12.849656-16.000416 22.649859-21.700231 27.533077-21.700231 9.416464 0 25.816992 17.2335 36.667108 28.649504 3.433192 3.616364 6.783497 7.133468 9.999748 10.333346 13.100366 15.366989-1.600451 123.799584-129.349997 251.582899-91.666746 91.650373-183.316096 132.666532-233.483682 132.682905-13.800307 0-18.033725-3.300162-18.050098-3.316535-3.266393-3.266393-6.767124-6.600325-10.383488-10.033517-11.550057-10.983145-29.033243-27.583219-28.649504-36.966936 0.090051-2.193968 1.327228-5.373381 4.070712-9.345856l3.864004-3.248997c3.319605-2.790556 5.964852-6.082532 7.936763-9.66615 1.778506-1.602498 3.712555-3.257184 5.845125-4.971222C365.41241 606.794993 378.062522 604.361571 382.195655 604.361571z" p-id="4337"></path></svg>