<?xml version="1.0" standalone="no"?><!DOCTYPE svg PUBLIC "-//W3C//DTD SVG 1.1//EN" "http://www.w3.org/Graphics/SVG/1.1/DTD/svg11.dtd"><svg t="1534900278027" class="icon" style="" viewBox="0 0 1024 1024" version="1.1" xmlns="http://www.w3.org/2000/svg" p-id="4215" xmlns:xlink="http://www.w3.org/1999/xlink" width="200" height="200"><defs><style type="text/css"></style></defs><path d="M870.4 701.013333l-110.933333-93.013333a57.6 57.6 0 0 0-81.066667 7.253333l-38.4 44.8c-33.28 28.16-114.346667-46.08-170.666667-104.106666-11.946667-11.946667-23.04-23.466667-33.706666-34.986667a21.333333 21.333333 0 0 0-31.146667 29.013333c11.093333 11.946667 22.613333 23.893333 34.986667 35.84 78.933333 78.933333 170.666667 159.146667 232.96 104.106667l40.106666-47.786667a14.506667 14.506667 0 0 1 10.24-5.12 14.08 14.08 0 0 1 11.093334 3.413334l110.933333 93.013333a14.933333 14.933333 0 0 1 0 20.906667L797.013333 810.666667c-51.626667 51.626667-128 38.826667-181.76 19.2a730.88 730.88 0 0 1-249.173333-170.666667 730.88 730.88 0 0 1-170.666667-249.173333c-19.626667-54.613333-32.426667-130.133333 17.493334-180.48L269.653333 179.2a15.36 15.36 0 0 1 10.666667-3.413333 14.933333 14.933333 0 0 1 10.24 5.12L384 291.84a14.933333 14.933333 0 0 1 0 20.906667l-50.346667 42.666666a81.92 81.92 0 0 0-3.413333 95.146667 21.333333 21.333333 0 1 0 38.4-18.773333c-16.213333-32.853333-6.4-42.666667-5.12-46.506667l45.653333-39.68a57.6 57.6 0 0 0 7.253334-81.066667L322.986667 153.6a57.6 57.6 0 0 0-81.066667-7.253333L181.76 197.12C128 250.453333 118.613333 328.533333 152.746667 423.253333a773.12 773.12 0 0 0 182.613333 264.96 773.973333 773.973333 0 0 0 264.96 182.613334 302.08 302.08 0 0 0 102.4 20.053333 170.666667 170.666667 0 0 0 125.44-50.346667l49.493333-58.88a57.6 57.6 0 0 0-7.253333-81.066666zM625.066667 291.84h175.36a21.333333 21.333333 0 0 0 14.933333-35.84L768 206.933333a21.333333 21.333333 0 0 0-30.293333 30.293334l12.373333 12.373333h-125.013333a21.333333 21.333333 0 0 0 0 42.666667zM622.08 409.6a21.333333 21.333333 0 0 0 30.293333-30.293333L640 366.933333h124.16a21.333333 21.333333 0 0 0 0-42.666666H588.8a21.333333 21.333333 0 0 0-14.933333 36.266666z" fill="" p-id="4216"></path></svg>